<svg width="9" height="15" viewBox="0 0 9 15" fill="none" xmlns="http://www.w3.org/2000/svg">
<path d="M3.4124 7.46852L8.41278 2.42857C8.67586 2.16182 8.82353 1.80098 8.82353 1.42485C8.82353 1.04873 8.67586 0.687883 8.41278 0.421133C8.28146 0.28769 8.12523 0.181773 7.9531 0.109493C7.78097 0.0372131 7.59635 0 7.40988 0C7.2234 0 7.03878 0.0372131 6.86665 0.109493C6.69452 0.181773 6.53829 0.28769 6.40698 0.421133L0.417826 6.45768C0.285431 6.59004 0.180347 6.7475 0.108634 6.92099C0.0369215 7.09449 0 7.28058 0 7.46852C0 7.65647 0.0369215 7.84256 0.108634 8.01605C0.180347 8.18954 0.285431 8.34701 0.417826 8.47936L6.40698 14.5871C6.53896 14.719 6.69549 14.8234 6.86759 14.8943C7.03969 14.9651 7.22398 15.0011 7.40988 15C7.59577 15.0011 7.78006 14.9651 7.95216 14.8943C8.12426 14.8234 8.28079 14.719 8.41278 14.5871C8.67586 14.3203 8.82353 13.9595 8.82353 13.5834C8.82353 13.2073 8.67586 12.8464 8.41278 12.5797L3.4124 7.46852Z" fill="#ACACAC"/>
</svg>
