<svg width="428" height="926" viewBox="0 0 428 926" fill="none" xmlns="http://www.w3.org/2000/svg">
<path fill-rule="evenodd" clip-rule="evenodd" d="M-267.675 -80.5027C-207.192 -57.7831 -45.4523 -10.7808 120.923 -91.0027C287.298 -171.225 381.114 -277.567 504.924 -250.165C628.734 -222.764 767.999 -141.55 813.371 1.6602C858.744 144.871 965.056 1064.47 965.056 1064.47L-75.9407 997.62C-75.9407 997.62 -328.158 -103.222 -267.675 -80.5027Z" fill="url(#paint0_linear_2703_1630)"/>
<path opacity="0.137738" fill-rule="evenodd" clip-rule="evenodd" d="M-168.965 3.47556C-101.28 73.3037 -41.3387 143.031 137.778 149.039C316.895 155.046 391.887 81.8594 473.266 70.8867C554.644 59.9139 689.974 57.8493 803.749 238.356C917.524 418.863 934.948 913.011 934.948 913.011L29.6736 1035.55C29.6736 1035.55 -236.65 -66.3526 -168.965 3.47556Z" fill="white"/>
<path opacity="0.137738" fill-rule="evenodd" clip-rule="evenodd" d="M-110.302 65.1086C-87.1521 132.306 -10.15 276.429 105.589 336.294C221.329 396.159 325.567 411.416 479.351 404.073C633.135 396.73 767.188 417.05 862.192 577.654C957.196 738.258 931.735 933.464 931.735 933.464L284.516 1047.96L44.9763 986.99C44.9763 986.99 -133.452 -2.08929 -110.302 65.1086Z" fill="white"/>
<path opacity="0.137738" fill-rule="evenodd" clip-rule="evenodd" d="M-63.382 372.555C27.1276 498.375 124.048 585.015 197.783 605.831C271.519 626.647 382.619 683.205 411.698 759.762C440.777 836.319 466.372 965.457 427.734 1016.5C389.095 1067.54 34.2069 1093.51 34.2069 1093.51C34.2069 1093.51 -153.892 246.734 -63.382 372.555Z" fill="white"/>
<circle r="10.0759" transform="matrix(0.990963 -0.134138 -0.134138 -0.990963 423.238 425.375)" fill="white"/>
<!-- <circle r="14.7264" transform="matrix(0.990963 -0.134138 -0.134138 -0.990963 257.361 563.585)" fill="white"/>
<circle r="6.20057" transform="matrix(0.990963 -0.134138 -0.134138 -0.990963 214.356 598.345)" fill="white"/> -->
<defs>
<linearGradient id="paint0_linear_2703_1630" x1="-113.448" y1="1210.46" x2="-298" y2="-152.946" gradientUnits="userSpaceOnUse">
<stop stop-color="#603605"/>
<stop offset="1" stop-color="#D63064"/>
</linearGradient>
</defs>
</svg>
