<svg width="428" height="295" viewBox="0 0 428 295" fill="none" xmlns="http://www.w3.org/2000/svg">
<path fill-rule="evenodd" clip-rule="evenodd" d="M491.545 223.838C451.028 233.613 343.765 250.949 243.569 186.462C143.373 121.975 91.6952 46.4887 10.2629 54.2664C-71.1695 62.0441 -166.741 103.057 -207.088 191.17C-247.435 279.283 -388.041 859.681 -388.041 859.681L283.742 898.994C283.742 898.994 532.062 214.062 491.545 223.838Z" fill="url(#paint0_linear_2612_1325)"/>
<path opacity="0.137738" fill-rule="evenodd" clip-rule="evenodd" d="M421.72 269.819C372.876 309.189 328.998 349.104 213.843 338.822C98.6875 328.539 56.446 275.765 5.20785 262.321C-46.0303 248.876 -132.514 236.879 -219.598 343.476C-306.682 450.073 -356.817 765.082 -356.817 765.082L213.129 914.948C213.129 914.948 470.564 230.45 421.72 269.819Z" fill="white"/>
<path opacity="0.137738" fill-rule="evenodd" clip-rule="evenodd" d="M379.299 304.653C359.176 345.851 298.506 432.054 219.681 461.253C140.855 490.453 72.9119 491.999 -24.9709 475.167C-122.854 458.335 -210.285 460.771 -283.781 556.106C-357.277 651.44 -356.373 778.431 -356.373 778.431L48.9843 902.79L207.162 882.65C207.162 882.65 399.422 263.455 379.299 304.653Z" fill="white"/>
<defs>
<linearGradient id="paint0_linear_2612_1325" x1="290.967" y1="1038.22" x2="516.675" y2="179.847" gradientUnits="userSpaceOnUse">
<stop stop-color="#C29653"/>
<stop offset="1" stop-color="#B91502"/>
</linearGradient>
</defs>
</svg>
