<svg width="428" height="410" viewBox="0 0 428 410" fill="none" xmlns="http://www.w3.org/2000/svg">
<path fill-rule="evenodd" clip-rule="evenodd" d="M-114.548 119.082C-81.7343 131.408 6.01305 156.908 96.2754 113.386C186.538 69.8637 237.435 12.1707 304.605 27.0365C371.775 41.9023 447.329 85.9628 471.945 163.658C496.561 241.353 554.237 740.257 554.237 740.257L-10.5276 703.989C-10.5276 703.989 -147.361 106.756 -114.548 119.082Z" fill="url(#paint0_linear_2632_2246)"/>
<path opacity="0.137738" fill-rule="evenodd" clip-rule="evenodd" d="M-60.9955 164.643C-24.2749 202.526 8.24473 240.355 105.42 243.614C202.595 246.873 243.28 207.168 287.429 201.215C331.579 195.262 404.999 194.142 466.724 292.071C528.45 390 537.903 658.086 537.903 658.086L46.7705 724.567C46.7705 724.567 -97.716 126.759 -60.9955 164.643Z" fill="white"/>
<path opacity="0.137738" fill-rule="evenodd" clip-rule="evenodd" d="M-29.1695 198.08C-16.6101 234.536 25.1653 312.726 87.9566 345.204C150.748 377.682 207.3 385.96 290.731 381.976C374.163 377.992 446.889 389.016 498.431 476.148C549.973 563.279 536.16 669.183 536.16 669.183L185.029 731.298L55.0726 698.222C55.0726 698.222 -41.729 161.624 -29.1695 198.08Z" fill="white"/>
<path opacity="0.137738" fill-rule="evenodd" clip-rule="evenodd" d="M-3.71421 364.876C45.3894 433.137 97.9706 480.141 137.974 491.434C177.977 502.727 238.252 533.411 254.028 574.945C269.804 616.479 283.69 686.54 262.728 714.231C241.765 741.921 49.23 756.009 49.23 756.009C49.23 756.009 -52.8178 296.616 -3.71421 364.876Z" fill="white"/>
<circle r="6.72791" transform="matrix(0.990963 -0.134138 -0.134138 -0.990963 122.849 321.754)" fill="white"/>
<circle r="5.46642" transform="matrix(0.990963 -0.134138 -0.134138 -0.990963 260.288 393.533)" fill="white"/>
<circle r="10.0919" transform="matrix(0.990963 -0.134138 -0.134138 -0.990963 358.988 379.748)" fill="white"/>
<defs>
<linearGradient id="paint0_linear_2632_2246" x1="-30.876" y1="819.459" x2="-131" y2="79.7802" gradientUnits="userSpaceOnUse">
<stop stop-color="#603605"/>
<stop offset="1" stop-color="#D63064"/>
</linearGradient>
</defs>
</svg>
