<svg width="428" height="562" viewBox="0 0 428 562" fill="none" xmlns="http://www.w3.org/2000/svg">
<path fill-rule="evenodd" clip-rule="evenodd" d="M-100.883 512.621C-64.1834 492.863 35.1447 448.82 148.445 485.707C261.746 522.594 330.922 582.457 407.699 554.227C484.477 525.996 566.477 462.027 583.09 366.551C599.703 271.074 588.09 -326 588.09 -326L-71.6053 -193.184C-71.6053 -193.184 -137.582 532.379 -100.883 512.621Z" fill="url(#paint0_linear_2611_1593)"/>
<path opacity="0.137738" fill-rule="evenodd" clip-rule="evenodd" d="M-45.0471 450.395C-7.82055 399.898 24.4646 350.137 138.449 330.797C252.433 311.457 306.707 351.754 359.679 351.727C412.652 351.699 499.344 341.309 556.457 216.07C613.57 90.832 581.949 -226.57 581.949 -226.57H-7.37133C-7.37133 -226.57 -82.2737 500.891 -45.0471 450.395Z" fill="white"/>
<path opacity="0.137738" fill-rule="evenodd" clip-rule="evenodd" d="M-12.8785 405.918C-3.89408 360.957 32.8598 262.16 101.668 213.875C170.477 165.59 235.793 146.816 334.739 138.203C433.684 129.59 517.622 105 564.457 -5.89062C611.293 -116.781 578.125 -239.367 578.125 -239.367L154.469 -256.555L6.61374 -196.852C6.61374 -196.852 -21.8628 450.879 -12.8785 405.918Z" fill="white"/>
<circle cx="146.523" cy="235.941" r="8" fill="white"/>
<circle cx="297.023" cy="129.441" r="6.5" fill="white"/>
<circle cx="415.523" cy="129.941" r="12" fill="white"/>
<circle cx="179.023" cy="55.4414" r="9.5" fill="white"/>
<circle cx="148.523" cy="36.9414" r="4" fill="white"/>
<defs>
<linearGradient id="paint0_linear_2611_1593" x1="-114" y1="-326" x2="-114" y2="561.556" gradientUnits="userSpaceOnUse">
<stop stop-color="#C29653"/>
<stop offset="1" stop-color="#B91502"/>
</linearGradient>
</defs>
</svg>
