<svg width="428" height="835" viewBox="0 0 428 835" fill="none" xmlns="http://www.w3.org/2000/svg">
<path fill-rule="evenodd" clip-rule="evenodd" d="M-235.664 607.441C-195.102 597.855 -87.7591 581.02 12.134 645.975C112.027 710.929 163.352 786.656 244.82 779.259C326.288 771.862 422.05 731.296 462.808 643.373C503.567 555.449 646.883 -24.2857 646.883 -24.2857L-24.7089 -66.7366C-24.7089 -66.7366 -276.227 617.027 -235.664 607.441Z" fill="url(#paint0_linear_2613_1431)"/>
<path opacity="0.137738" fill-rule="evenodd" clip-rule="evenodd" d="M-165.626 561.786C-116.598 522.645 -72.5341 482.935 42.5718 493.756C157.678 504.576 199.672 557.547 250.847 571.231C302.022 584.915 388.449 597.316 476.03 491.127C563.611 384.938 615.217 70.1666 615.217 70.1666L45.9775 -82.3607C45.9775 -82.3607 -214.653 600.926 -165.626 561.786Z" fill="white"/>
<path opacity="0.137738" fill-rule="evenodd" clip-rule="evenodd" d="M-123.042 527.151C-102.727 486.047 -41.6549 400.129 37.3062 371.298C116.267 342.467 184.217 341.239 282.02 358.528C379.823 375.817 467.265 373.79 541.206 278.8C615.146 183.81 614.836 56.8162 614.836 56.8162L210.064 -69.436L51.7943 -50.035C51.7943 -50.035 -143.357 568.254 -123.042 527.151Z" fill="white"/>
<circle cx="74.9216" cy="404.222" r="8" transform="rotate(15 74.9216 404.222)" fill="white"/>
<circle cx="247.858" cy="340.303" r="6.5" transform="rotate(15 247.858 340.303)" fill="white"/>
<circle cx="362.191" cy="371.456" r="12" transform="rotate(15 362.191 371.456)" fill="white"/>
<circle cx="153.031" cy="238.284" r="9.5" transform="rotate(15 153.031 238.284)" fill="white"/>
<circle cx="128.358" cy="212.521" r="4" transform="rotate(15 128.358 212.521)" fill="white"/>
<defs>
<linearGradient id="paint0_linear_2613_1431" x1="-31.2836" y1="-206" x2="-261" y2="651.314" gradientUnits="userSpaceOnUse">
<stop stop-color="#C29653"/>
<stop offset="1" stop-color="#B91502"/>
</linearGradient>
</defs>
</svg>
