<svg width="334" height="263" viewBox="0 0 334 263" fill="none" xmlns="http://www.w3.org/2000/svg">
<g clip-path="url(#clip0_2611_1382)">
<path d="M73.07 227.48C73.07 227.48 17.7 189.23 41.84 122.89C57.87 78.83 123.27 62.15 138.49 32.72C153.71 3.3 222.32 -19.48 255.54 26.06C288.76 71.6 286.27 178.55 206.93 225.29C206.91 225.3 133.91 275.75 73.07 227.48Z" fill="#FFECD0"/>
<path d="M7.79 159.85L5.27 161.47C4.67 161.85 4.5 162.65 4.88 163.25L23.97 192.95C24.35 193.55 25.15 193.72 25.75 193.34L28.27 191.72C28.87 191.34 29.04 190.54 28.66 189.94L9.57 160.24C9.18 159.64 8.38 159.46 7.79 159.85Z" fill="#9E9E9E"/>
<path d="M25.74 206.57C25.74 206.57 14.95 195.91 11.75 190.45C8.85 185.49 10.01 176.9 12.24 173.76C12.3 173.69 12.37 173.63 12.46 173.6C12.55 173.57 12.64 173.57 12.73 173.59C12.82 173.61 12.9 173.66 12.96 173.73C13.02 173.8 13.06 173.88 13.07 173.98C13.45 177.04 14.11 180.07 15.04 183.01C15.06 183.08 15.11 183.14 15.17 183.19C15.23 183.24 15.3 183.26 15.38 183.26C15.45 183.26 15.53 183.24 15.59 183.19C15.65 183.15 15.69 183.08 15.72 183.01C16.34 180.66 18.01 175.13 20.63 171.74C20.71 171.64 20.81 171.58 20.93 171.55C21.05 171.52 21.17 171.52 21.28 171.57C21.39 171.61 21.49 171.69 21.55 171.79C21.62 171.89 21.65 172.01 21.64 172.13C21.43 174.94 21.05 180.57 21.1 183.23C21.08 184.67 21.41 186.09 22.08 187.36C22.75 188.63 23.72 189.72 24.92 190.51C27.94 192.73 28.5 196.55 29.29 204.01L25.74 206.57Z" fill="white"/>
<path d="M73.62 191.75C77.43 193.14 85.58 195.22 97.31 193.62V171.26H81.57C81.57 171.26 82.86 183.22 73.62 191.75Z" fill="white"/>
<path d="M73.62 191.75C73.52 191.85 73.42 191.95 73.31 192.05C64.93 199.51 58.39 216.54 62.38 232.29C62.38 232.29 44.79 224.03 29.34 201.11L22.94 206.97C22.94 206.97 32.88 245.73 62 261.39C63.32 262.1 64.82 262.38 66.3 262.2C71.79 261.56 85.95 258.88 97.29 247.74V193.58C85.58 195.21 77.43 193.13 73.62 191.75Z" fill="#FFC875"/>
<path d="M65 121.99C70.05 119.97 75.7 120.04 80.7 122.19C85.7 124.33 89.65 128.38 91.66 133.43L96.86 146.43C97.86 148.93 98.36 151.61 98.33 154.3C98.3 157 97.73 159.66 96.67 162.14C95.61 164.62 94.07 166.86 92.14 168.74C90.21 170.62 87.93 172.11 85.43 173.11L80 175.28C76.38 176.73 72.34 176.67 68.76 175.14C65.18 173.6 62.36 170.71 60.91 167.09L53.55 148.67C51.53 143.62 51.6 137.97 53.75 132.97C55.9 127.97 59.94 124.03 64.99 122.01L65 121.99Z" fill="white"/>
<path d="M52.7 146.12C52.7 146.12 64.54 140.7 69.04 133.54C69.04 133.54 74.9 151.04 85.03 164.9C95.16 178.76 97.02 196.61 87.69 210.74C78.36 224.86 70.9 238.72 76.76 247.01C82.62 255.3 91.95 257.94 99.94 252.61V128.09C99.94 128.09 90.7 116.25 75.25 117.87C59.8 119.5 48.64 133.33 52.7 146.12Z" fill="#EF4765"/>
<path d="M58.03 159.08L56.63 167.59C56.6 167.8 56.61 168.02 56.68 168.22C56.75 168.42 56.87 168.61 57.02 168.75C57.18 168.9 57.37 169 57.57 169.06C57.78 169.11 57.99 169.12 58.2 169.07L63.54 167.8L58.03 159.08Z" fill="white"/>
<path d="M78.99 159.44C81.54 159.44 83.61 157.37 83.61 154.82C83.61 152.27 81.54 150.2 78.99 150.2C76.44 150.2 74.37 152.27 74.37 154.82C74.37 157.37 76.44 159.44 78.99 159.44Z" fill="white"/>
<path d="M61.14 155.13C61.14 155.13 65.77 155.18 67.71 151.05" stroke="#EF4765" stroke-miterlimit="10" stroke-linecap="round"/>
<path d="M66.3 172.81C66.3 172.81 69.89 172.85 71.39 169.66" stroke="#EF4765" stroke-miterlimit="10" stroke-linecap="round"/>
<path d="M240.07 70.28L234.65 68.12C229.6 66.1 225.55 62.16 223.41 57.16C221.27 52.16 221.19 46.51 223.21 41.46L228.41 28.45C229.41 25.95 230.89 23.67 232.77 21.74C234.65 19.81 236.9 18.27 239.37 17.21C241.85 16.15 244.51 15.58 247.2 15.55C249.89 15.52 252.57 16.01 255.07 17.01C257.57 18.01 259.85 19.49 261.78 21.37C263.71 23.25 265.25 25.49 266.31 27.97C267.37 30.45 267.94 33.11 267.97 35.8C268 38.49 267.51 41.17 266.51 43.67L259.15 62.09C257.7 65.71 254.88 68.6 251.3 70.14C247.73 71.67 243.69 71.72 240.07 70.28Z" fill="white"/>
<path d="M262.07 54.09L263.47 62.6C263.51 62.81 263.49 63.03 263.42 63.23C263.35 63.43 263.23 63.62 263.08 63.76C262.92 63.91 262.73 64.01 262.53 64.07C262.32 64.13 262.1 64.13 261.9 64.08L256.56 62.81L262.07 54.09Z" fill="white"/>
<path d="M258.95 50.14C258.95 50.14 254.32 50.19 252.38 46.06" stroke="#EF4765" stroke-miterlimit="10" stroke-linecap="round"/>
<path d="M253.8 67.82C253.8 67.82 250.21 67.86 248.71 64.67" stroke="#EF4765" stroke-miterlimit="10" stroke-linecap="round"/>
<path d="M292.11 89.04L294.63 90.66C295.23 91.04 296.02 90.87 296.41 90.27L315.5 60.57C315.88 59.97 315.71 59.18 315.11 58.79L312.59 57.17C311.99 56.79 311.2 56.96 310.81 57.56L291.72 87.26C291.34 87.86 291.51 88.66 292.11 89.04Z" fill="#9E9E9E"/>
<path d="M295.04 105.44C295.04 105.44 303.57 92.52 306.77 87.05C309.68 82.09 308.52 73.5 306.28 70.37C306.23 70.3 306.15 70.24 306.06 70.21C305.97 70.18 305.88 70.18 305.79 70.2C305.7 70.22 305.62 70.27 305.56 70.34C305.5 70.41 305.46 70.49 305.45 70.59C305.07 73.65 304.42 76.68 303.48 79.62C303.46 79.69 303.42 79.76 303.36 79.8C303.3 79.85 303.23 79.87 303.15 79.87C303.07 79.87 303 79.84 302.94 79.8C302.88 79.75 302.84 79.69 302.82 79.62C302.19 77.27 300.53 71.73 297.91 68.34C297.83 68.25 297.73 68.18 297.61 68.15C297.49 68.12 297.37 68.12 297.26 68.17C297.15 68.21 297.05 68.29 296.99 68.39C296.92 68.49 296.89 68.61 296.9 68.73C297.11 71.54 297.49 77.18 297.44 79.83C297.47 81.27 297.14 82.69 296.48 83.96C295.82 85.24 294.85 86.32 293.66 87.13C290.64 89.35 289.63 93.05 288.83 100.45L295.04 105.44Z" fill="white"/>
<path d="M244.9 88.35C241.1 89.73 232.94 91.81 221.21 90.22V58.98L236.93 67.86C236.94 67.86 235.66 79.85 244.9 88.35Z" fill="white"/>
<path d="M236.94 68C236.94 67.9 236.94 67.86 236.94 67.86C236.94 67.86 236.95 67.91 236.94 68Z" fill="#FFC875"/>
<path d="M289.22 97.71C273.76 120.66 256.18 128.89 256.18 128.89C260.18 113.17 253.66 96.12 245.25 88.65L244.94 88.35C241.14 89.73 232.98 91.81 221.25 90.22V144.35C232.6 155.45 246.75 158.17 252.24 158.82C253.72 158.99 255.22 158.71 256.53 158C285.65 142.34 295.59 103.58 295.59 103.58L289.22 97.71Z" fill="#FFC875"/>
<path d="M269.61 21.46C263.76 23.3 258.91 19.28 256.91 17.76C255.15 16.38 253.2 15.25 251.13 14.41C237.27 8.71999 224.93 19.52 222.84 25.94C221.1 31.28 222.26 53.38 222.69 60.61C222.76 61.82 223.96 62.19 225.12 61.88C227.24 61.32 230.3 59.32 234.21 55.72C240.28 50.12 249.24 39.54 251.97 33.51C256.41 38.1 264.41 44.13 272.8 40.36C285.6 34.67 281 17.88 269.61 21.46Z" fill="#EF4765"/>
<path d="M240.04 53.65C242.59 53.65 244.66 51.58 244.66 49.03C244.66 46.48 242.59 44.41 240.04 44.41C237.49 44.41 235.42 46.48 235.42 49.03C235.42 51.58 237.49 53.65 240.04 53.65Z" fill="white"/>
<path d="M210.61 12.82H112.54C105.59 12.82 99.95 18.46 99.95 25.41V249.66C99.95 256.61 105.59 262.25 112.54 262.25H210.61C217.56 262.25 223.2 256.61 223.2 249.66V25.41C223.2 18.45 217.57 12.82 210.61 12.82Z" fill="#ACACAC"/>
<path d="M215.59 29.24H107.56V245.81H215.6V29.24H215.59Z" fill="white"/>
<path d="M199.88 72.08H122.78C121.95 72.08 121.13 71.92 120.37 71.6C119.61 71.28 118.91 70.82 118.33 70.23C117.75 69.65 117.28 68.95 116.97 68.19C116.65 67.43 116.49 66.61 116.49 65.78V48.5C116.49 47.67 116.65 46.85 116.97 46.09C117.29 45.33 117.75 44.63 118.33 44.05C118.91 43.47 119.61 43 120.37 42.69C121.13 42.37 121.95 42.21 122.78 42.21H199.88C201.55 42.21 203.15 42.87 204.33 44.05C205.51 45.23 206.17 46.83 206.17 48.5V65.75L208.88 73.66C208.93 73.82 208.94 73.99 208.91 74.16C208.87 74.33 208.79 74.48 208.67 74.6C208.55 74.72 208.4 74.8 208.23 74.84C208.06 74.88 207.89 74.87 207.73 74.81L199.88 72.08Z" fill="#F1F2F2"/>
<path d="M153.19 59.04C154.52 59.04 155.59 57.97 155.59 56.64C155.59 55.31 154.52 54.24 153.19 54.24C151.87 54.24 150.79 55.31 150.79 56.64C150.79 57.97 151.86 59.04 153.19 59.04Z" fill="#ACACAC"/>
<path d="M162.58 59.04C163.91 59.04 164.98 57.97 164.98 56.64C164.98 55.31 163.91 54.24 162.58 54.24C161.26 54.24 160.18 55.31 160.18 56.64C160.18 57.97 161.26 59.04 162.58 59.04Z" fill="#ACACAC"/>
<path d="M172.58 59.04C173.91 59.04 174.98 57.97 174.98 56.64C174.98 55.31 173.91 54.24 172.58 54.24C171.26 54.24 170.18 55.31 170.18 56.64C170.18 57.97 171.26 59.04 172.58 59.04Z" fill="#ACACAC"/>
<path d="M125.53 232.53H202.61C204.28 232.53 205.88 231.87 207.06 230.68C208.24 229.5 208.91 227.9 208.91 226.23V208.97C208.91 208.14 208.75 207.32 208.43 206.56C208.11 205.8 207.65 205.1 207.06 204.52C206.48 203.94 205.78 203.47 205.02 203.16C204.26 202.84 203.44 202.68 202.61 202.68H125.53C123.86 202.68 122.26 203.34 121.08 204.52C119.9 205.7 119.24 207.3 119.24 208.97V226.23L116.54 234.1C116.48 234.26 116.48 234.43 116.51 234.6C116.55 234.76 116.63 234.92 116.75 235.03C116.87 235.15 117.02 235.23 117.18 235.27C117.35 235.31 117.52 235.3 117.68 235.24L125.53 232.53Z" fill="#F1F2F2"/>
<path d="M172.23 219.91C173.55 219.91 174.63 218.84 174.63 217.51C174.63 216.18 173.56 215.11 172.23 215.11C170.91 215.11 169.83 216.18 169.83 217.51C169.83 218.84 170.91 219.91 172.23 219.91Z" fill="white"/>
<path d="M162.58 220.04C163.91 220.04 164.98 218.97 164.98 217.64C164.98 216.32 163.91 215.24 162.58 215.24C161.26 215.24 160.18 216.31 160.18 217.64C160.19 218.97 161.26 220.04 162.58 220.04Z" fill="#ACACAC"/>
<path d="M153.19 220.04C154.52 220.04 155.59 218.97 155.59 217.64C155.59 216.32 154.52 215.24 153.19 215.24C151.87 215.24 150.79 216.31 150.79 217.64C150.79 218.97 151.86 220.04 153.19 220.04Z" fill="#ACACAC"/>
<path d="M125.53 131.91H202.61C204.28 131.91 205.88 131.25 207.06 130.06C208.24 128.87 208.91 127.28 208.91 125.61V89.85C208.91 89.02 208.75 88.2 208.43 87.44C208.11 86.68 207.65 85.98 207.06 85.4C206.48 84.82 205.78 84.35 205.02 84.04C204.26 83.72 203.44 83.56 202.61 83.56H125.53C123.86 83.56 122.26 84.22 121.08 85.4C119.9 86.58 119.24 88.18 119.24 89.85V125.61L116.54 133.47C116.48 133.63 116.47 133.8 116.51 133.97C116.55 134.14 116.63 134.29 116.75 134.41C116.87 134.53 117.02 134.62 117.19 134.65C117.36 134.69 117.53 134.68 117.69 134.62L125.53 131.91Z" fill="#F1F2F2"/>
<path d="M172.58 113.04C173.91 113.04 174.98 111.97 174.98 110.64C174.98 109.32 173.91 108.24 172.58 108.24C171.26 108.24 170.18 109.31 170.18 110.64C170.19 111.97 171.26 113.04 172.58 113.04Z" fill="#ACACAC"/>
<path d="M162.58 113.04C163.91 113.04 164.98 111.97 164.98 110.64C164.98 109.32 163.91 108.24 162.58 108.24C161.26 108.24 160.18 109.31 160.18 110.64C160.19 111.97 161.26 113.04 162.58 113.04Z" fill="#ACACAC"/>
<path d="M153.19 113.04C154.52 113.04 155.59 111.97 155.59 110.64C155.59 109.32 154.52 108.24 153.19 108.24C151.87 108.24 150.79 109.31 150.79 110.64C150.79 111.97 151.86 113.04 153.19 113.04Z" fill="#ACACAC"/>
<path d="M199.88 191.31H122.78C121.95 191.31 121.13 191.15 120.37 190.83C119.61 190.51 118.91 190.05 118.33 189.46C117.75 188.88 117.28 188.18 116.97 187.42C116.65 186.66 116.49 185.84 116.49 185.01V149.25C116.49 148.42 116.65 147.6 116.97 146.84C117.29 146.08 117.75 145.38 118.33 144.8C118.91 144.22 119.61 143.75 120.37 143.44C121.13 143.12 121.95 142.96 122.78 142.96H199.88C201.55 142.96 203.15 143.62 204.33 144.8C205.51 145.98 206.17 147.58 206.17 149.25V185.01L208.88 192.84C208.93 193 208.94 193.17 208.9 193.34C208.86 193.51 208.78 193.66 208.66 193.78C208.54 193.9 208.39 193.98 208.22 194.02C208.05 194.06 207.88 194.05 207.72 194L199.88 191.31Z" fill="#F1F2F2"/>
<path d="M153.19 167.04C154.52 167.04 155.59 165.97 155.59 164.64C155.59 163.32 154.52 162.24 153.19 162.24C151.87 162.24 150.79 163.31 150.79 164.64C150.79 165.97 151.86 167.04 153.19 167.04Z" fill="#ACACAC"/>
<path d="M162.58 167.04C163.91 167.04 164.98 165.97 164.98 164.64C164.98 163.32 163.91 162.24 162.58 162.24C161.26 162.24 160.18 163.31 160.18 164.64C160.19 165.97 161.26 167.04 162.58 167.04Z" fill="#ACACAC"/>
<path d="M172.58 167.04C173.91 167.04 174.98 165.97 174.98 164.64C174.98 163.32 173.91 162.24 172.58 162.24C171.26 162.24 170.18 163.31 170.18 164.64C170.19 165.97 171.26 167.04 172.58 167.04Z" fill="#ACACAC"/>
<path d="M18.94 158.85C18.94 158.85 12.54 113.28 40.5 90.1C68.45 66.92 74.11 110.6 58.09 105.02C46.25 100.89 70.88 65.31 93.27 87.7C115.65 110.08 126.37 204.15 174.04 227.63C204.69 242.7 214.1 209.55 198.82 205.25C188.46 202.29 184.16 228.2 214.54 218.57C244.92 208.95 242.79 159.68 246.79 129.3C250.79 98.92 262.78 73.34 286.76 76.54" stroke="url(#paint0_linear_2611_1382)" stroke-miterlimit="10"/>
<path d="M54.21 73.1C53.34 73.64 53.1 74.83 53.68 75.76C54.26 76.69 55.43 77.01 56.29 76.48L65.51 70.79L63.42 67.41L54.21 73.1Z" fill="white"/>
<path d="M54.92 74.99C54.44 74.22 54.68 73.21 55.45 72.73L63.64 67.67L63.24 67.03L47 77.06C45.87 77.76 45.53 79.23 46.22 80.36C46.91 81.49 48.39 81.83 49.52 81.14L65.77 71.1L65.37 70.46L57.17 75.52C56.41 76 55.4 75.76 54.92 74.99Z" fill="#FFC000"/>
<path d="M56.06 73.16L60.56 70.38L60.63 70.5L56.13 73.28L56.06 73.16Z" fill="#EFEFEF"/>
<path d="M56.27 73.51L60.77 70.73L60.84 70.85L56.34 73.63L56.27 73.51Z" fill="#EFEFEF"/>
<path d="M56.49 73.86L63.72 69.39L63.8 69.51L56.56 73.98L56.49 73.86Z" fill="#EFEFEF"/>
<path d="M49.39 75.59L49.62 75.45L52.14 79.52L51.9 79.67L49.39 75.59Z" fill="white"/>
<path d="M50.06 75.18L50.29 75.03L52.81 79.11L52.58 79.25L50.06 75.18Z" fill="white"/>
<path d="M52.41 68.62C51.54 69.16 51.3 70.35 51.88 71.28C52.46 72.21 53.63 72.53 54.49 72L63.71 66.31L61.62 62.93L52.41 68.62Z" fill="white"/>
<path d="M53.12 70.51C52.64 69.74 52.88 68.73 53.65 68.25L61.84 63.19L61.44 62.55L45.2 72.58C44.07 73.28 43.73 74.75 44.42 75.88C45.12 77.01 46.59 77.35 47.72 76.66L63.97 66.63L63.57 65.99L55.37 71.05C54.61 71.52 53.6 71.28 53.12 70.51Z" fill="#737373"/>
<path d="M54.26 68.68L58.76 65.9L58.83 66.02L54.33 68.8L54.26 68.68Z" fill="#EFEFEF"/>
<path d="M54.47 69.03L58.97 66.25L59.04 66.37L54.54 69.15L54.47 69.03Z" fill="#EFEFEF"/>
<path d="M54.69 69.38L61.92 64.91L62 65.03L54.76 69.5L54.69 69.38Z" fill="#EFEFEF"/>
<path d="M47.59 71.11L47.82 70.97L50.34 75.04L50.1 75.19L47.59 71.11Z" fill="#505050"/>
<path d="M48.26 70.7L48.49 70.55L51.01 74.63L50.78 74.77L48.26 70.7Z" fill="#505050"/>
<path d="M48.45 65.47C47.58 66.01 47.34 67.2 47.92 68.13C48.5 69.06 49.67 69.38 50.53 68.85L59.75 63.16L57.66 59.78L48.45 65.47Z" fill="white"/>
<path d="M49.16 67.36C48.68 66.59 48.92 65.58 49.69 65.1L57.88 60.04L57.48 59.4L41.25 69.44C40.12 70.14 39.78 71.61 40.47 72.74C41.16 73.87 42.64 74.21 43.77 73.52L60.02 63.49L59.62 62.85L51.42 67.91C50.65 68.37 49.64 68.13 49.16 67.36Z" fill="#505050"/>
<path d="M50.3 65.54L54.8 62.76L54.87 62.87L50.37 65.65L50.3 65.54Z" fill="#EFEFEF"/>
<path d="M50.52 65.89L55.02 63.11L55.09 63.22L50.59 66L50.52 65.89Z" fill="#EFEFEF"/>
<path d="M50.73 66.23L57.97 61.77L58.04 61.88L50.8 66.35L50.73 66.23Z" fill="#EFEFEF"/>
<path d="M46.68 60.93C45.81 61.47 45.57 62.66 46.15 63.59C46.73 64.52 47.9 64.84 48.76 64.31L57.98 58.62L55.89 55.24L46.68 60.93Z" fill="white"/>
<path d="M47.4 62.82C46.92 62.05 47.16 61.04 47.93 60.56L56.12 55.5L55.72 54.86L39.49 64.89C38.36 65.59 38.02 67.06 38.71 68.19C39.41 69.32 40.88 69.66 42.01 68.97L58.26 58.94L57.86 58.3L49.66 63.36C48.89 63.83 47.88 63.59 47.4 62.82Z" fill="#FFC000"/>
<path d="M48.54 60.99L53.04 58.21L53.11 58.33L48.61 61.11L48.54 60.99Z" fill="#EFEFEF"/>
<path d="M48.76 61.34L53.26 58.56L53.33 58.68L48.83 61.46L48.76 61.34Z" fill="#EFEFEF"/>
<path d="M48.97 61.69L56.21 57.22L56.28 57.34L49.04 61.81L48.97 61.69Z" fill="#EFEFEF"/>
<path d="M44.91 56.48C44.04 57.02 43.8 58.21 44.38 59.14C44.96 60.07 46.13 60.39 46.99 59.86L56.21 54.17L54.12 50.79L44.91 56.48Z" fill="white"/>
<path d="M45.62 58.37C45.14 57.6 45.38 56.59 46.15 56.11L54.34 51.05L53.94 50.41L37.71 60.44C36.58 61.14 36.24 62.61 36.93 63.74C37.62 64.87 39.1 65.21 40.23 64.52L56.48 54.49L56.08 53.85L47.88 58.91C47.11 59.38 46.1 59.14 45.62 58.37Z" fill="#737373"/>
<path d="M46.76 56.54L51.26 53.76L51.33 53.88L46.83 56.66L46.76 56.54Z" fill="#EFEFEF"/>
<path d="M46.97 56.89L51.48 54.11L51.55 54.23L47.05 57.01L46.97 56.89Z" fill="#EFEFEF"/>
<path d="M47.19 57.24L54.43 52.77L54.5 52.89L47.26 57.36L47.19 57.24Z" fill="#EFEFEF"/>
<path d="M40.09 58.97L40.32 58.83L42.84 62.9L42.61 63.05L40.09 58.97Z" fill="#505050"/>
<path d="M40.76 58.56L41 58.41L43.51 62.49L43.28 62.63L40.76 58.56Z" fill="#505050"/>
<path d="M40.6 53.51C39.7 54.07 39.44 55.27 40.01 56.2C40.59 57.13 41.78 57.44 42.68 56.88L52.24 50.98L50.15 47.6L40.6 53.51Z" fill="white"/>
<path d="M41.65 55.19C41.17 54.42 41.41 53.41 42.18 52.93L50.37 47.87L49.97 47.23L33.74 57.27C32.61 57.97 32.27 59.44 32.96 60.57C33.65 61.7 35.13 62.04 36.26 61.35L52.5 51.31L52.1 50.67L43.9 55.73C43.14 56.2 42.13 55.97 41.65 55.19Z" fill="#FFC000"/>
<path d="M42.79 53.37L47.29 50.59L47.36 50.7L42.86 53.48L42.79 53.37Z" fill="#EFEFEF"/>
<path d="M43 53.72L47.5 50.94L47.57 51.05L43.07 53.83L43 53.72Z" fill="#EFEFEF"/>
<path d="M43.22 54.07L50.46 49.6L50.53 49.71L43.29 54.18L43.22 54.07Z" fill="#EFEFEF"/>
<path d="M40.69 45.55C39.21 44.46 37.87 42.87 36.89 43.48C35.91 44.09 36.73 46 37.04 47.81C37.05 47.84 37.05 47.87 37.05 47.9C37.65 47.93 38.22 48.24 38.55 48.79C38.98 49.49 38.9 50.36 38.41 50.97C38.47 51.03 38.52 51.09 38.56 51.16C38.83 51.59 38.71 52.15 38.3 52.44C39.5 53.34 40.89 53 42.24 52.16C44.01 51.07 44.84 49.22 43.75 47.45C43.27 46.66 41.88 46.41 40.69 45.55Z" fill="#FFC000"/>
<path d="M37.38 38.93C37.38 38.93 36.34 39.7 36.06 40.88C35.94 41.38 35.98 41.87 36.06 42.27L36.3 42.65L36.54 43.05L36.94 43.7L37.06 43.63L36.64 42.95C36.96 42.63 37.46 42.03 37.64 41.25C37.92 40.07 37.38 38.93 37.38 38.93Z" fill="#737373"/>
<path d="M305.03 32.31C304.36 31.92 303.47 32.19 303.05 32.92C302.62 33.65 302.82 34.56 303.49 34.95L310.61 39.1L312.15 36.45L305.03 32.31Z" fill="white"/>
<path d="M303.58 33.24C303.95 32.61 304.75 32.4 305.38 32.77L312.05 36.66L312.35 36.14L299.13 28.44C298.21 27.91 297.04 28.22 296.51 29.13C295.98 30.05 296.29 31.22 297.2 31.75L310.42 39.45L310.72 38.93L304.05 35.04C303.43 34.67 303.21 33.87 303.58 33.24Z" fill="#FFC000"/>
<path d="M305.3 33.35L308.96 35.49L308.91 35.58L305.25 33.45L305.3 33.35Z" fill="#EFEFEF"/>
<path d="M305.13 33.64L308.8 35.77L308.74 35.87L305.08 33.73L305.13 33.64Z" fill="#EFEFEF"/>
<path d="M304.97 33.92L310.86 37.35L310.8 37.45L304.91 34.02L304.97 33.92Z" fill="#EFEFEF"/>
<path d="M301.07 29.55L301.26 29.66L299.33 32.98L299.14 32.87L301.07 29.55Z" fill="white"/>
<path d="M301.62 29.87L301.81 29.98L299.87 33.3L299.68 33.19L301.62 29.87Z" fill="white"/>
<path d="M307.52 29.36C306.85 28.97 305.96 29.24 305.54 29.97C305.11 30.7 305.31 31.61 305.98 32L313.1 36.15L314.64 33.5L307.52 29.36Z" fill="white"/>
<path d="M306.06 30.29C306.43 29.66 307.23 29.45 307.86 29.82L314.53 33.71L314.83 33.19L301.61 25.49C300.69 24.96 299.52 25.27 298.99 26.18C298.46 27.1 298.77 28.27 299.68 28.8L312.9 36.5L313.2 35.98L306.53 32.09C305.91 31.72 305.7 30.92 306.06 30.29Z" fill="#737373"/>
<path d="M307.78 30.4L311.44 32.54L311.39 32.63L307.73 30.5L307.78 30.4Z" fill="#EFEFEF"/>
<path d="M307.62 30.69L311.28 32.82L311.22 32.91L307.56 30.78L307.62 30.69Z" fill="#EFEFEF"/>
<path d="M307.45 30.97L313.34 34.4L313.28 34.5L307.4 31.06L307.45 30.97Z" fill="#EFEFEF"/>
<path d="M303.55 26.6L303.74 26.71L301.81 30.03L301.62 29.92L303.55 26.6Z" fill="#505050"/>
<path d="M304.1 26.92L304.29 27.03L302.35 30.35L302.17 30.24L304.1 26.92Z" fill="#505050"/>
<path d="M308.26 25.37C307.59 24.98 306.7 25.25 306.28 25.98C305.85 26.71 306.05 27.62 306.72 28.01L313.84 32.16L315.38 29.51L308.26 25.37Z" fill="white"/>
<path d="M306.8 26.29C307.17 25.66 307.97 25.45 308.6 25.82L315.27 29.71L315.57 29.19L302.35 21.49C301.43 20.96 300.26 21.27 299.73 22.18C299.2 23.1 299.51 24.27 300.42 24.8L313.64 32.5L313.94 31.98L307.27 28.09C306.65 27.72 306.44 26.92 306.8 26.29Z" fill="#505050"/>
<path d="M308.52 26.4L312.19 28.54L312.13 28.63L308.47 26.5L308.52 26.4Z" fill="#EFEFEF"/>
<path d="M308.36 26.69L312.02 28.82L311.97 28.92L308.3 26.78L308.36 26.69Z" fill="#EFEFEF"/>
<path d="M308.19 26.97L314.08 30.4L314.03 30.5L308.14 27.07L308.19 26.97Z" fill="#EFEFEF"/>
<path d="M310.79 22.44C310.12 22.05 309.23 22.32 308.81 23.05C308.38 23.78 308.58 24.69 309.25 25.08L316.37 29.23L317.91 26.58L310.79 22.44Z" fill="white"/>
<path d="M309.34 23.36C309.71 22.73 310.51 22.52 311.14 22.89L317.81 26.78L318.11 26.26L304.89 18.56C303.97 18.03 302.8 18.34 302.27 19.25C301.74 20.17 302.05 21.34 302.96 21.87L316.18 29.57L316.48 29.05L309.81 25.16C309.18 24.8 308.97 23.99 309.34 23.36Z" fill="#FFC000"/>
<path d="M311.06 23.48L314.72 25.61L314.66 25.71L311 23.57L311.06 23.48Z" fill="#EFEFEF"/>
<path d="M310.89 23.76L314.55 25.9L314.5 25.99L310.84 23.86L310.89 23.76Z" fill="#EFEFEF"/>
<path d="M310.72 24.05L316.61 27.48L316.56 27.57L310.67 24.14L310.72 24.05Z" fill="#EFEFEF"/>
<path d="M313.26 19.5C312.59 19.11 311.7 19.38 311.28 20.11C310.85 20.84 311.05 21.75 311.72 22.14L318.84 26.29L320.38 23.64L313.26 19.5Z" fill="white"/>
<path d="M311.81 20.42C312.18 19.79 312.98 19.58 313.61 19.95L320.28 23.84L320.58 23.32L307.36 15.62C306.44 15.09 305.27 15.4 304.74 16.31C304.21 17.23 304.52 18.4 305.43 18.93L318.65 26.63L318.95 26.11L312.28 22.22C311.66 21.86 311.44 21.05 311.81 20.42Z" fill="#737373"/>
<path d="M313.53 20.54L317.19 22.67L317.14 22.77L313.47 20.63L313.53 20.54Z" fill="#EFEFEF"/>
<path d="M313.36 20.82L317.03 22.96L316.97 23.05L313.31 20.92L313.36 20.82Z" fill="#EFEFEF"/>
<path d="M313.2 21.11L319.09 24.54L319.03 24.63L313.14 21.2L313.2 21.11Z" fill="#EFEFEF"/>
<path d="M309.3 16.74L309.49 16.85L307.56 20.17L307.37 20.06L309.3 16.74Z" fill="#505050"/>
<path d="M309.85 17.06L310.04 17.17L308.1 20.49L307.91 20.38L309.85 17.06Z" fill="#505050"/>
<path d="M314 15.51C313.33 15.12 312.44 15.39 312.02 16.12C311.59 16.85 311.79 17.76 312.46 18.15L319.58 22.3L321.12 19.65L314 15.51Z" fill="white"/>
<path d="M312.55 16.44C312.92 15.81 313.72 15.6 314.35 15.97L321.02 19.86L321.32 19.34L308.1 11.64C307.18 11.11 306.01 11.42 305.48 12.33C304.95 13.25 305.26 14.42 306.17 14.95L319.39 22.65L319.69 22.13L313.02 18.24C312.39 17.87 312.18 17.07 312.55 16.44Z" fill="#FFC000"/>
<path d="M314.27 16.55L317.93 18.69L317.87 18.78L314.21 16.65L314.27 16.55Z" fill="#EFEFEF"/>
<path d="M314.1 16.84L317.76 18.97L317.71 19.06L314.05 16.93L314.1 16.84Z" fill="#EFEFEF"/>
<path d="M313.94 17.12L319.82 20.55L319.77 20.65L313.88 17.22L313.94 17.12Z" fill="#EFEFEF"/>
<path d="M254.803 197.105L230.203 216.125C229.973 216.305 229.933 216.625 230.113 216.855L242.233 232.525C242.413 232.755 242.733 232.795 242.963 232.615L267.563 213.595C267.793 213.415 267.833 213.095 267.653 212.865L255.533 197.195C255.363 196.975 255.033 196.935 254.803 197.105Z" fill="#505050"/>
<path d="M230.553 215.865C230.323 216.045 230.283 216.365 230.463 216.595L242.583 232.265C242.763 232.495 243.083 232.535 243.313 232.355L254.103 224.015L241.353 207.525L230.553 215.865Z" fill="#737373"/>
<path d="M254.463 197.375L243.543 205.825L256.293 222.315L267.213 213.865C267.443 213.685 267.483 213.365 267.303 213.135L255.183 197.465C255.023 197.235 254.693 197.195 254.463 197.375Z" fill="#737373"/>
<path d="M231.793 214.905L238.183 209.965L239.403 211.545L233.013 216.485L231.793 214.905Z" fill="#505050"/>
<path d="M232.053 213.695L238.443 208.755L240.163 210.965L233.773 215.905L232.053 213.695Z" fill="#D2D2D2"/>
<path d="M248.133 226.535L260.503 216.965L261.833 218.685L249.463 228.255L248.133 226.535Z" fill="#D2D2D2"/>
<path d="M236.533 211.245L238.183 209.965L238.923 210.925L237.273 212.205L236.533 211.245Z" fill="white"/>
<path d="M232.353 216.495L243.003 230.305L243.593 230.485L265.203 213.775L265.233 213.285L254.543 199.465L254.043 199.345L232.433 216.055L232.353 216.495Z" fill="#F2F2F2"/>
<path d="M231.553 216.735L232.433 216.055L243.593 230.485L242.713 231.165L231.553 216.735Z" fill="#E6E6E6"/>
<path d="M266.073 213.095L265.193 213.775L254.043 199.355L254.913 198.675L266.073 213.095Z" fill="#E6E6E6"/>
<path d="M231.733 216.605L231.793 216.555L240.563 227.885L240.493 227.945L231.733 216.605Z" fill="#D2D2D2"/>
<path d="M231.933 216.445L232.003 216.395L240.773 227.725L240.703 227.785L231.933 216.445Z" fill="#D2D2D2"/>
<path d="M232.143 216.285L232.213 216.235L240.983 227.565L240.913 227.625L232.143 216.285Z" fill="#D2D2D2"/>
<path d="M254.673 198.855L254.743 198.805L265.903 213.235L265.833 213.285L254.673 198.855Z" fill="#D2D2D2"/>
<path d="M254.473 199.015L254.543 198.965L265.703 213.395L265.633 213.445L254.473 199.015Z" fill="#D2D2D2"/>
<path d="M254.263 199.175L254.333 199.125L265.493 213.555L265.423 213.605L254.263 199.175Z" fill="#D2D2D2"/>
<path d="M254.393 222.135L263.893 213.735L252.733 199.305L243.233 207.705L254.393 222.135Z" fill="#D2D2D2"/>
<path d="M254.393 222.135L262.313 214.325L251.153 199.895L243.233 207.705L254.393 222.135Z" fill="white"/>
<path d="M241.103 212.325L234.923 217.105C234.843 217.165 234.733 217.145 234.683 217.075C234.623 216.995 234.643 216.885 234.713 216.835L240.893 212.055C240.973 211.995 241.083 212.015 241.133 212.085C241.193 212.155 241.173 212.265 241.103 212.325Z" fill="#E6E6E6"/>
<path d="M241.873 213.315L235.693 218.095C235.613 218.155 235.503 218.135 235.453 218.065C235.393 217.985 235.413 217.875 235.483 217.825L241.663 213.045C241.743 212.985 241.853 213.005 241.903 213.075C241.963 213.145 241.943 213.255 241.873 213.315Z" fill="#E6E6E6"/>
<path d="M242.643 214.315L236.463 219.095C236.383 219.155 236.273 219.135 236.223 219.065C236.163 218.985 236.183 218.875 236.253 218.825L242.433 214.045C242.513 213.985 242.623 214.005 242.673 214.075C242.733 214.145 242.713 214.255 242.643 214.315Z" fill="#E6E6E6"/>
<path d="M243.413 215.315L237.233 220.095C237.153 220.155 237.053 220.135 236.993 220.065C236.933 219.985 236.953 219.875 237.023 219.825L243.203 215.045C243.283 214.985 243.393 215.005 243.443 215.075C243.493 215.145 243.483 215.255 243.413 215.315Z" fill="#E6E6E6"/>
<path d="M244.183 216.305L238.003 221.085C237.923 221.145 237.813 221.125 237.763 221.055C237.703 220.975 237.723 220.865 237.793 220.815L243.973 216.035C244.053 215.975 244.163 215.995 244.213 216.065C244.273 216.135 244.253 216.245 244.183 216.305Z" fill="#E6E6E6"/>
<path d="M242.543 219.165L238.763 222.085C238.683 222.145 238.573 222.125 238.523 222.055C238.463 221.975 238.483 221.865 238.553 221.815L242.333 218.895C242.413 218.835 242.523 218.855 242.573 218.925C242.633 218.995 242.623 219.105 242.543 219.165Z" fill="#E6E6E6"/>
<path d="M245.723 218.295L239.543 223.075C239.463 223.135 239.353 223.115 239.303 223.045C239.243 222.965 239.263 222.855 239.333 222.805L245.513 218.025C245.593 217.965 245.703 217.985 245.753 218.055C245.803 218.125 245.803 218.245 245.723 218.295Z" fill="#E6E6E6"/>
<path d="M246.493 219.295L240.313 224.075C240.233 224.135 240.123 224.115 240.073 224.045C240.013 223.965 240.033 223.855 240.103 223.805L246.283 219.025C246.363 218.965 246.473 218.985 246.523 219.055C246.583 219.125 246.573 219.235 246.493 219.295Z" fill="#E6E6E6"/>
<path d="M247.263 220.295L241.083 225.075C241.003 225.135 240.893 225.115 240.843 225.045C240.783 224.965 240.803 224.855 240.873 224.805L247.053 220.025C247.133 219.965 247.243 219.985 247.293 220.055C247.353 220.125 247.343 220.235 247.263 220.295Z" fill="#E6E6E6"/>
<path d="M248.033 221.285L241.853 226.065C241.773 226.125 241.663 226.105 241.613 226.035C241.553 225.955 241.573 225.845 241.643 225.795L247.823 221.015C247.903 220.955 248.013 220.975 248.063 221.045C248.123 221.125 248.113 221.225 248.033 221.285Z" fill="#E6E6E6"/>
<path d="M248.803 222.285L242.623 227.065C242.543 227.125 242.433 227.105 242.383 227.035C242.323 226.955 242.343 226.845 242.413 226.795L248.593 222.015C248.673 221.955 248.783 221.975 248.833 222.045C248.893 222.115 248.883 222.225 248.803 222.285Z" fill="#E6E6E6"/>
<path d="M246.083 208.465C246.013 208.515 245.923 208.515 245.853 208.455C245.783 208.385 245.783 208.275 245.853 208.205L251.383 202.505C251.453 202.435 251.563 202.435 251.633 202.505C251.703 202.575 251.703 202.685 251.633 202.755L246.103 208.455C246.093 208.455 246.083 208.465 246.083 208.465Z" fill="#E6E6E6"/>
<path d="M246.833 209.475C246.763 209.525 246.673 209.525 246.603 209.465C246.533 209.395 246.533 209.285 246.603 209.215L252.133 203.515C252.203 203.445 252.313 203.445 252.383 203.515C252.453 203.585 252.453 203.695 252.383 203.765L246.853 209.465C246.853 209.465 246.843 209.475 246.833 209.475Z" fill="#E6E6E6"/>
<path d="M247.593 210.485C247.523 210.535 247.433 210.535 247.363 210.475C247.293 210.405 247.293 210.295 247.363 210.225L252.903 204.535C252.973 204.465 253.083 204.465 253.153 204.535C253.223 204.605 253.223 204.715 253.153 204.785L247.613 210.475C247.603 210.475 247.603 210.475 247.593 210.485Z" fill="#E6E6E6"/>
<path d="M248.353 211.495C248.283 211.545 248.193 211.545 248.123 211.485C248.053 211.415 248.053 211.305 248.123 211.235L253.663 205.555C253.733 205.485 253.843 205.485 253.913 205.555C253.983 205.625 253.983 205.735 253.913 205.805L248.373 211.485C248.363 211.475 248.353 211.485 248.353 211.495Z" fill="#E6E6E6"/>
<path d="M249.103 212.495C249.033 212.545 248.943 212.545 248.873 212.485C248.803 212.415 248.803 212.305 248.873 212.235L254.423 206.565C254.493 206.495 254.603 206.495 254.673 206.565C254.743 206.635 254.743 206.745 254.673 206.815L249.123 212.485C249.123 212.485 249.113 212.495 249.103 212.495Z" fill="#E6E6E6"/>
<path d="M249.863 213.505C249.793 213.555 249.703 213.555 249.633 213.495C249.563 213.425 249.563 213.315 249.633 213.245L255.183 207.575C255.253 207.505 255.363 207.505 255.433 207.575C255.503 207.645 255.503 207.755 255.433 207.825L249.883 213.495C249.873 213.495 249.873 213.495 249.863 213.505Z" fill="#E6E6E6"/>
<path d="M250.623 214.515C250.553 214.565 250.453 214.565 250.393 214.505C250.323 214.435 250.323 214.325 250.393 214.255L255.953 208.595C256.023 208.525 256.133 208.525 256.203 208.595C256.273 208.665 256.273 208.775 256.203 208.845L250.643 214.505C250.633 214.505 250.623 214.505 250.623 214.515Z" fill="#E6E6E6"/>
<path d="M251.373 215.515C251.303 215.565 251.203 215.565 251.143 215.505C251.073 215.435 251.073 215.325 251.143 215.255L256.703 209.605C256.773 209.535 256.883 209.535 256.953 209.605C257.023 209.675 257.023 209.785 256.953 209.855L251.393 215.505C251.393 215.505 251.383 215.515 251.373 215.515Z" fill="#E6E6E6"/>
<path d="M252.133 216.525C252.063 216.575 251.963 216.575 251.903 216.515C251.833 216.445 251.833 216.335 251.903 216.265L257.473 210.615C257.543 210.545 257.653 210.545 257.723 210.615C257.793 210.685 257.793 210.795 257.723 210.865L252.153 216.515C252.143 216.515 252.143 216.515 252.133 216.525Z" fill="#E6E6E6"/>
<path d="M252.893 217.535C252.823 217.585 252.723 217.585 252.663 217.525C252.593 217.455 252.593 217.345 252.663 217.275L258.233 211.635C258.303 211.565 258.413 211.565 258.483 211.635C258.553 211.705 258.553 211.815 258.483 211.885L252.913 217.525C252.903 217.525 252.893 217.525 252.893 217.535Z" fill="#E6E6E6"/>
<path d="M253.643 218.535C253.573 218.585 253.473 218.585 253.413 218.525C253.343 218.455 253.343 218.345 253.413 218.275L258.993 212.645C259.063 212.575 259.173 212.575 259.243 212.645C259.313 212.715 259.313 212.825 259.243 212.895L253.663 218.525C253.663 218.525 253.653 218.535 253.643 218.535Z" fill="#E6E6E6"/>
<path d="M248.033 216.175L246.663 216.255L246.253 217.565L240.353 209.935L242.133 208.555L248.033 216.175Z" fill="#FFC000"/>
</g>
<defs>
<linearGradient id="paint0_linear_2611_1382" x1="287" y1="76" x2="-15.5" y2="274.5" gradientUnits="userSpaceOnUse">
<stop stop-color="#EF4765"/>
<stop offset="1" stop-color="#FBB904"/>
</linearGradient>
<clipPath id="clip0_2611_1382">
<rect width="333.92" height="262.25" fill="white"/>
</clipPath>
</defs>
</svg>
